<svg width="1284" height="337" viewBox="0 0 1284 337" fill="none" xmlns="http://www.w3.org/2000/svg">
<path d="M230.391 68.3937H282.266V26.8823H223.805L141.133 109.581L58.4614 26.8823H0V68.3937H51.8757C78.2454 68.3937 99.6218 89.7701 99.6218 116.14V219.891C99.6218 246.261 78.2454 267.637 51.8757 267.637H0V309.149H58.4614L141.133 226.477L223.805 309.149H282.266V267.637H230.391C204.021 267.637 182.644 246.261 182.644 219.891V116.14C182.644 89.7701 204.021 68.3937 230.391 68.3937Z" fill="#EDEDED"/>
<path d="M408.709 273V62.268H521.91V87.6639H435.185V163.581H513.534V189.248H435.185V273H408.709ZM531.007 273V122.516H553.431L554.782 145.75L555.592 146.02C562.076 131.161 575.585 122.516 596.388 122.516H598.279V147.912H592.065C568.56 147.912 556.673 164.662 556.673 192.76V273H531.007ZM670.549 275.432C625.701 275.432 592.74 241.931 592.74 198.163C592.74 154.936 624.08 120.084 669.468 120.084C714.046 120.084 746.196 154.396 743.225 204.917H618.406C621.919 237.878 646.774 252.197 670.819 252.197C690.812 252.197 707.292 242.201 715.938 226.261L739.172 234.366C727.555 259.762 701.889 275.432 670.549 275.432ZM618.947 184.655H718.369C714.857 161.96 695.945 143.319 669.468 143.319C644.073 143.319 623.269 161.42 618.947 184.655ZM820.883 275.432C776.035 275.432 743.075 241.931 743.075 198.163C743.075 154.936 774.414 120.084 819.803 120.084C864.381 120.084 896.531 154.396 893.559 204.917H768.741C772.253 237.878 797.109 252.197 821.154 252.197C841.146 252.197 857.627 242.201 866.272 226.261L889.506 234.366C877.889 259.762 852.223 275.432 820.883 275.432ZM769.281 184.655H868.703C865.191 161.96 846.279 143.319 819.803 143.319C794.407 143.319 773.604 161.42 769.281 184.655ZM969.597 275.432C925.829 275.432 893.409 242.201 893.409 197.893C893.409 153.585 925.829 120.084 969.597 120.084C994.723 120.084 1016.88 132.242 1026.6 150.343L1027.41 150.073V62.268H1053.35V273H1030.38L1029.84 243.552H1029.03C1018.5 262.734 996.614 275.432 969.597 275.432ZM972.299 252.737C1004.45 252.737 1027.41 228.962 1027.41 197.893C1027.41 167.364 1004.45 142.778 972.299 142.778C941.769 142.778 917.724 167.364 917.724 197.893C917.724 228.692 941.769 252.737 972.299 252.737ZM1138.66 275.432C1094.9 275.432 1062.48 242.201 1062.48 197.893C1062.48 153.585 1094.9 120.084 1138.66 120.084C1165.68 120.084 1187.83 132.782 1198.1 151.964H1198.91L1199.45 122.516H1222.15V273H1199.45L1198.91 243.552H1198.1C1187.83 263.004 1165.68 275.432 1138.66 275.432ZM1141.91 252.197C1173.52 252.197 1196.21 228.422 1196.21 197.893C1196.21 167.634 1173.52 143.319 1141.91 143.319C1111.92 143.319 1088.14 167.904 1088.14 197.893C1088.14 228.422 1111.92 252.197 1141.91 252.197ZM1236.41 273V243.552H1265.85V273H1236.41Z" fill="#EDEDED"/>
</svg>
